<?xml version="1.0" encoding="UTF-8"?> <!-- Generator: Adobe Illustrator 25.1.0, SVG Export Plug-In . SVG Version: 6.00 Build 0) --> <svg xmlns="http://www.w3.org/2000/svg" xmlns:xlink="http://www.w3.org/1999/xlink" version="1.1" id="Layer_1" x="0px" y="0px" viewBox="0 0 288 288" style="enable-background:new 0 0 288 288;" xml:space="preserve"> <style type="text/css"> .st0{fill:none;stroke:#00CFC1;stroke-width:9.5118;stroke-miterlimit:10;} .st1{fill:none;stroke:#00CFC1;stroke-width:9.5118;stroke-linejoin:round;stroke-miterlimit:10;} .st2{fill:none;stroke:#00CFC1;stroke-width:9.5118;stroke-linecap:round;stroke-linejoin:round;stroke-miterlimit:10;} .st3{fill:none;stroke:#00CFC1;stroke-width:10.2696;stroke-miterlimit:10;} .st4{fill:none;stroke:#00CFC1;stroke-width:9.5258;stroke-miterlimit:10;} .st5{fill:none;stroke:#00CFC1;stroke-width:9.5258;stroke-linecap:round;stroke-miterlimit:10;} .st6{fill:none;stroke:#00CFC1;stroke-width:9.5258;stroke-linecap:round;stroke-linejoin:round;stroke-miterlimit:10;} .st7{fill:none;stroke:#00CFC1;stroke-width:10.203;stroke-linecap:round;stroke-linejoin:round;stroke-miterlimit:10;} .st8{fill:none;stroke:#00CFC1;stroke-width:8.5603;stroke-linecap:round;stroke-linejoin:round;stroke-miterlimit:10;} .st9{fill:none;stroke:#00CFC1;stroke-width:8.7111;stroke-linecap:round;stroke-linejoin:round;stroke-miterlimit:10;} .st10{fill:none;stroke:#00CFC1;stroke-width:9.0014;stroke-linecap:round;stroke-linejoin:round;stroke-miterlimit:10;} .st11{fill:#FFFFFF;stroke:#00CFC1;stroke-width:9.0014;stroke-linecap:round;stroke-linejoin:round;stroke-miterlimit:10;} .st12{fill:none;stroke:#00CFC1;stroke-width:10.6184;stroke-linecap:round;stroke-linejoin:round;stroke-miterlimit:10;} .st13{fill:none;stroke:#00CFC1;stroke-width:9.6317;stroke-linecap:round;stroke-linejoin:round;stroke-miterlimit:10;} .st14{fill:none;stroke:#00CFC1;stroke-width:8.6381;stroke-linecap:round;stroke-linejoin:round;stroke-miterlimit:10;} .st15{fill:none;stroke:#00CFC1;stroke-width:9.2798;stroke-linecap:round;stroke-linejoin:round;stroke-miterlimit:10;} .st16{fill:none;stroke:#00CFC1;stroke-width:8.6648;stroke-linecap:round;stroke-linejoin:round;stroke-miterlimit:10;} .st17{fill:none;stroke:#00CFC1;stroke-width:8.5;stroke-linecap:round;stroke-linejoin:round;stroke-miterlimit:10;} </style> <g> <polygon class="st8" points="35.3,242.1 35.3,241.5 241.2,241.3 241.2,242.1 "></polygon> <rect x="35.5" y="173.2" class="st8" width="38.5" height="34.2"></rect> <rect x="91.1" y="139" class="st8" width="38.5" height="68.5"></rect> <rect x="146.8" y="156.1" class="st8" width="38.5" height="51.4"></rect> <rect x="202.4" y="104.7" class="st8" width="38.5" height="102.7"></rect> <circle class="st8" cx="54.8" cy="117.6" r="12.8"></circle> <circle class="st8" cx="110.4" cy="83.3" r="12.8"></circle> <circle class="st8" cx="166" cy="100.5" r="12.8"></circle> <circle class="st8" cx="221.7" cy="49.1" r="12.8"></circle> <g> <path class="st8" d="M65.6,110.7c0.1,0.1,0.1,0.3,0.2,0.4l33.8-20.8c-0.1-0.1-0.1-0.3-0.2-0.4L65.6,110.7z"></path> <path class="st8" d="M122.7,86.9c0,0.1-0.1,0.3-0.1,0.4l31.2,9.6c0-0.1,0.1-0.3,0.1-0.4L122.7,86.9z"></path> <path class="st8" d="M175.3,91.6c0.1,0.1,0.2,0.2,0.3,0.3l36.8-34c-0.1-0.1-0.2-0.2-0.3-0.3L175.3,91.6z"></path> </g> </g> </svg> 